<svg id="SvgjsSvg1242" width="966.0034484863281" height="427.013916015625" xmlns="http://www.w3.org/2000/svg" version="1.1" xmlns:xlink="http://www.w3.org/1999/xlink" xmlns:svgjs="http://svgjs.com/svgjs"><defs id="SvgjsDefs1243"></defs><g id="SvgjsG1244" transform="translate(545.0034484863281,256.017333984375)"><path id="SvgjsPath1245" d="M 40 0L 80 70L 0 70Z" stroke="rgba(50,50,50,1)" stroke-width="2" fill-opacity="1" fill="#ffffff"></path><g id="SvgjsG1246"><text id="SvgjsText1247" font-family="微软雅黑" text-anchor="middle" font-size="13px" width="60px" fill="#323232" font-weight="400" align="middle" anchor="middle" family="微软雅黑" size="13px" weight="400" font-style="" opacity="1" y="33.8" transform="rotate(0)"></text></g></g><g id="SvgjsG1248" transform="translate(465.0034484863281,256.017333984375)"><path id="SvgjsPath1249" d="M 40 0L 80 70L 0 70Z" stroke="rgba(50,50,50,1)" stroke-width="2" fill-opacity="1" fill="#ffffff"></path><g id="SvgjsG1250"><text id="SvgjsText1251" font-family="微软雅黑" text-anchor="middle" font-size="13px" width="60px" fill="#323232" font-weight="400" align="middle" anchor="middle" family="微软雅黑" size="13px" weight="400" font-style="" opacity="1" y="33.8" transform="rotate(0)"></text></g></g><g id="SvgjsG1252" transform="translate(385.0034484863281,256.017333984375)"><path id="SvgjsPath1253" d="M 40 0L 80 70L 0 70Z" stroke="rgba(50,50,50,1)" stroke-width="2" fill-opacity="1" fill="#ffffff"></path><g id="SvgjsG1254"><text id="SvgjsText1255" font-family="微软雅黑" text-anchor="middle" font-size="13px" width="60px" fill="#323232" font-weight="400" align="middle" anchor="middle" family="微软雅黑" size="13px" weight="400" font-style="" opacity="1" y="33.8" transform="rotate(0)"></text></g></g><g id="SvgjsG1256" transform="translate(425.0034484863281,186.017333984375)"><path id="SvgjsPath1257" d="M 40 0L 80 70L 0 70Z" stroke="rgba(50,50,50,1)" stroke-width="2" fill-opacity="1" fill="#ffffff"></path><g id="SvgjsG1258"><text id="SvgjsText1259" font-family="微软雅黑" text-anchor="middle" font-size="13px" width="60px" fill="#323232" font-weight="400" align="middle" anchor="middle" family="微软雅黑" size="13px" weight="400" font-style="" opacity="1" y="33.8" transform="rotate(0)"></text></g></g><g id="SvgjsG1260" transform="translate(305.0034484863281,256.017333984375)"><path id="SvgjsPath1261" d="M 40 0L 80 70L 0 70Z" stroke="rgba(50,50,50,1)" stroke-width="2" fill-opacity="1" fill="#ffffff"></path><g id="SvgjsG1262"><text id="SvgjsText1263" font-family="微软雅黑" text-anchor="middle" font-size="13px" width="60px" fill="#323232" font-weight="400" align="middle" anchor="middle" family="微软雅黑" size="13px" weight="400" font-style="" opacity="1" y="33.8" transform="rotate(0)"></text></g></g><g id="SvgjsG1264" transform="translate(225.00344848632812,256.017333984375)"><path id="SvgjsPath1265" d="M 40 0L 80 70L 0 70Z" stroke="rgba(50,50,50,1)" stroke-width="2" fill-opacity="1" fill="#ffffff"></path><g id="SvgjsG1266"><text id="SvgjsText1267" font-family="微软雅黑" text-anchor="middle" font-size="13px" width="60px" fill="#323232" font-weight="400" align="middle" anchor="middle" family="微软雅黑" size="13px" weight="400" font-style="" opacity="1" y="33.8" transform="rotate(0)"></text></g></g><g id="SvgjsG1268" transform="translate(265.0034484863281,186.017333984375)"><path id="SvgjsPath1269" d="M 40 0L 80 70L 0 70Z" stroke="rgba(50,50,50,1)" stroke-width="2" fill-opacity="1" fill="#ffffff"></path><g id="SvgjsG1270"><text id="SvgjsText1271" font-family="微软雅黑" text-anchor="middle" font-size="13px" width="60px" fill="#323232" font-weight="400" align="middle" anchor="middle" family="微软雅黑" size="13px" weight="400" font-style="" opacity="1" y="33.8" transform="rotate(0)"></text></g></g><g id="SvgjsG1272" transform="translate(145.00344848632812,256.017333984375)"><path id="SvgjsPath1273" d="M 40 0L 80 70L 0 70Z" stroke="rgba(50,50,50,1)" stroke-width="2" fill-opacity="1" fill="#ffffff"></path><g id="SvgjsG1274"><text id="SvgjsText1275" font-family="微软雅黑" text-anchor="middle" font-size="13px" width="60px" fill="#323232" font-weight="400" align="middle" anchor="middle" family="微软雅黑" size="13px" weight="400" font-style="" opacity="1" y="33.8" transform="rotate(0)"></text></g></g><g id="SvgjsG1276" transform="translate(65.00344848632812,256.017333984375)"><path id="SvgjsPath1277" d="M 40 0L 80 70L 0 70Z" stroke="rgba(50,50,50,1)" stroke-width="2" fill-opacity="1" fill="#ffffff"></path><g id="SvgjsG1278"><text id="SvgjsText1279" font-family="微软雅黑" text-anchor="middle" font-size="13px" width="60px" fill="#323232" font-weight="400" align="middle" anchor="middle" family="微软雅黑" size="13px" weight="400" font-style="" opacity="1" y="33.8" transform="rotate(0)"></text></g></g><g id="SvgjsG1280" transform="translate(106.00344848632812,186.017333984375)"><path id="SvgjsPath1281" d="M 40 0L 80 70L 0 70Z" stroke="rgba(50,50,50,1)" stroke-width="2" fill-opacity="1" fill="#ffffff"></path><g id="SvgjsG1282"><text id="SvgjsText1283" font-family="微软雅黑" text-anchor="middle" font-size="13px" width="60px" fill="#323232" font-weight="400" align="middle" anchor="middle" family="微软雅黑" size="13px" weight="400" font-style="" opacity="1" y="33.8" transform="rotate(0)"></text></g></g><g id="SvgjsG1284" transform="matrix(-1,1.2246467991473532e-16,-1.2246467991473532e-16,-1,225.00344848632812,256.017333984375)"><path id="SvgjsPath1285" d="M 40 0L 80 70L 0 70Z" stroke="rgba(50,50,50,1)" stroke-width="2" fill-opacity="1" fill="#ffffff"></path><g id="SvgjsG1286"><text id="SvgjsText1287" font-family="微软雅黑" text-anchor="middle" font-size="13px" width="60px" fill="#323232" font-weight="400" align="middle" anchor="middle" family="微软雅黑" size="13px" weight="400" font-style="" opacity="1" y="33.8" transform="rotate(0)"></text></g></g><g id="SvgjsG1288" transform="translate(185.00344848632812,186.017333984375)"><path id="SvgjsPath1289" d="M 40 0L 80 70L 0 70Z" stroke="rgba(50,50,50,1)" stroke-width="2" fill-opacity="1" fill="#ffffff"></path><g id="SvgjsG1290"><text id="SvgjsText1291" font-family="微软雅黑" text-anchor="middle" font-size="13px" width="60px" fill="#323232" font-weight="400" align="middle" anchor="middle" family="微软雅黑" size="13px" weight="400" font-style="" opacity="1" y="33.8" transform="rotate(0)"></text></g></g><g id="SvgjsG1292" transform="matrix(-1,1.2246467991473532e-16,-1.2246467991473532e-16,-1,305.0034484863281,256.017333984375)"><path id="SvgjsPath1293" d="M 40 0L 80 70L 0 70Z" stroke="rgba(50,50,50,1)" stroke-width="2" fill-opacity="1" fill="#ffffff"></path><g id="SvgjsG1294"><text id="SvgjsText1295" font-family="微软雅黑" text-anchor="middle" font-size="13px" width="60px" fill="#323232" font-weight="400" align="middle" anchor="middle" family="微软雅黑" size="13px" weight="400" font-style="" opacity="1" y="33.8" transform="rotate(0)"></text></g></g><g id="SvgjsG1296" transform="matrix(-1,1.2246467991473532e-16,-1.2246467991473532e-16,-1,385.0034484863281,256.017333984375)"><path id="SvgjsPath1297" d="M 40 0L 80 70L 0 70Z" stroke="rgba(50,50,50,1)" stroke-width="2" fill-opacity="1" fill="#ffffff"></path><g id="SvgjsG1298"><text id="SvgjsText1299" font-family="微软雅黑" text-anchor="middle" font-size="13px" width="60px" fill="#323232" font-weight="400" align="middle" anchor="middle" family="微软雅黑" size="13px" weight="400" font-style="" opacity="1" y="33.8" transform="rotate(0)"></text></g></g><g id="SvgjsG1300" transform="translate(345.0034484863281,186.017333984375)"><path id="SvgjsPath1301" d="M 40 0L 80 70L 0 70Z" stroke="rgba(50,50,50,1)" stroke-width="2" fill-opacity="1" fill="#ffffff"></path><g id="SvgjsG1302"><text id="SvgjsText1303" font-family="微软雅黑" text-anchor="middle" font-size="13px" width="60px" fill="#323232" font-weight="400" align="middle" anchor="middle" family="微软雅黑" size="13px" weight="400" font-style="" opacity="1" y="33.8" transform="rotate(0)"></text></g></g><g id="SvgjsG1304" transform="matrix(-1,1.2246467991473532e-16,-1.2246467991473532e-16,-1,465.0034484863281,256.017333984375)"><path id="SvgjsPath1305" d="M 40 0L 80 70L 0 70Z" stroke="rgba(50,50,50,1)" stroke-width="2" fill-opacity="1" fill="#ffffff"></path><g id="SvgjsG1306"><text id="SvgjsText1307" font-family="微软雅黑" text-anchor="middle" font-size="13px" width="60px" fill="#323232" font-weight="400" align="middle" anchor="middle" family="微软雅黑" size="13px" weight="400" font-style="" opacity="1" y="33.8" transform="rotate(0)"></text></g></g><g id="SvgjsG1308" transform="matrix(-1,1.2246467991473532e-16,-1.2246467991473532e-16,-1,545.0034484863281,256.017333984375)"><path id="SvgjsPath1309" d="M 40 0L 80 70L 0 70Z" stroke="rgba(50,50,50,1)" stroke-width="2" fill-opacity="1" fill="#ffffff"></path><g id="SvgjsG1310"><text id="SvgjsText1311" font-family="微软雅黑" text-anchor="middle" font-size="13px" width="60px" fill="#323232" font-weight="400" align="middle" anchor="middle" family="微软雅黑" size="13px" weight="400" font-style="" opacity="1" y="33.8" transform="rotate(0)"></text></g></g><g id="SvgjsG1312" transform="translate(505.0034484863281,186.017333984375)"><path id="SvgjsPath1313" d="M 40 0L 80 70L 0 70Z" stroke="rgba(50,50,50,1)" stroke-width="2" fill-opacity="1" fill="#ffffff"></path><g id="SvgjsG1314"><text id="SvgjsText1315" font-family="微软雅黑" text-anchor="middle" font-size="13px" width="60px" fill="#323232" font-weight="400" align="middle" anchor="middle" family="微软雅黑" size="13px" weight="400" font-style="" opacity="1" y="33.8" transform="rotate(0)"></text></g></g><g id="SvgjsG1316" transform="translate(162.00344848632812,25.017333984375)"><path id="SvgjsPath1317" d="M 0 0L 236 0L 252 16L 252 85L 0 85L 0 0Z" stroke="none" fill-opacity="1" fill="#ffffaa"></path><path id="SvgjsPath1318" d="M 236 0L 236 16L 252 16Z" stroke="none" fill-opacity="1" fill="#cdcdcd"></path><path id="SvgjsPath1319" d="M 0 0L 236 0L 252 16L 252 85L 0 85L 0 0Z" stroke="none" fill="none"></path><g id="SvgjsG1320"><text id="SvgjsText1321" font-family="微软雅黑" text-anchor="middle" font-size="20px" width="232px" fill="#323232" font-weight="700" align="middle" anchor="middle" family="微软雅黑" size="20px" weight="700" font-style="" opacity="1" y="3" transform="rotate(0)"><tspan id="SvgjsTspan1322" dy="25" x="126"><tspan id="SvgjsTspan1323" style="text-decoration:;">总的来说，下边夹角 60 </tspan></tspan><tspan id="SvgjsTspan1324" dy="25" x="126"><tspan id="SvgjsTspan1325" style="text-decoration:;">°，可以正好 斜边对照</tspan></tspan><tspan id="SvgjsTspan1326" dy="25" x="126"><tspan id="SvgjsTspan1327" style="text-decoration:;">住。</tspan></tspan></text></g></g><g id="SvgjsG1328" transform="translate(69.00344848632812,292.017333984375)"><path id="SvgjsPath1329" d="M 0 0L 61 0L 61 40L 0 40Z" stroke="none" fill="none"></path><g id="SvgjsG1330"><text id="SvgjsText1331" font-family="微软雅黑" text-anchor="middle" font-size="22px" width="61px" fill="#ff0000" font-weight="700" align="middle" anchor="middle" family="微软雅黑" size="22px" weight="700" font-style="" opacity="1" y="0.7000000000000002" transform="rotate(0)"><tspan id="SvgjsTspan1332" dy="27" x="30.5"><tspan id="SvgjsTspan1333" style="text-decoration:;">60°</tspan></tspan></text></g></g><g id="SvgjsG1334" transform="translate(457.0034484863281,32.517333984375)"><path id="SvgjsPath1335" d="M 0 0L 212 0L 228 16L 228 84.5L 0 84.5L 0 0Z" stroke="none" fill-opacity="1" fill="#ffffaa"></path><path id="SvgjsPath1336" d="M 212 0L 212 16L 228 16Z" stroke="none" fill-opacity="1" fill="#cdcdcd"></path><path id="SvgjsPath1337" d="M 0 0L 212 0L 228 16L 228 84.5L 0 84.5L 0 0Z" stroke="none" fill="none"></path><g id="SvgjsG1338"><text id="SvgjsText1339" font-family="微软雅黑" text-anchor="middle" font-size="17px" width="208px" fill="#323232" font-weight="700" align="middle" anchor="middle" family="微软雅黑" size="17px" weight="700" font-style="" opacity="1" y="9.7" transform="rotate(0)"><tspan id="SvgjsTspan1340" dy="21" x="114"><tspan id="SvgjsTspan1341" style="text-decoration:;">大小分以下就行了。 </tspan></tspan><tspan id="SvgjsTspan1342" dy="21" x="114"><tspan id="SvgjsTspan1343" style="text-decoration:;">- 太小了，小气，</tspan></tspan><tspan id="SvgjsTspan1344" dy="21" x="114"><tspan id="SvgjsTspan1345" style="text-decoration:;">- 太大了。不好看。</tspan></tspan></text></g></g><g id="SvgjsG1346" transform="translate(634.0034484863281,172.517333984375)"><path id="SvgjsPath1347" d="M 0 0L 268 0L 284 16L 284 69.5L 0 69.5L 0 0Z" stroke="none" fill-opacity="1" fill="#ffffaa"></path><path id="SvgjsPath1348" d="M 268 0L 268 16L 284 16Z" stroke="none" fill-opacity="1" fill="#cdcdcd"></path><path id="SvgjsPath1349" d="M 0 0L 268 0L 284 16L 284 69.5L 0 69.5L 0 0Z" stroke="none" fill="none"></path><g id="SvgjsG1350"><text id="SvgjsText1351" font-family="微软雅黑" text-anchor="middle" font-size="21px" width="264px" fill="#ff3333" font-weight="700" align="middle" anchor="middle" family="微软雅黑" size="21px" weight="700" font-style="" opacity="1" y="4.1" transform="rotate(0)"><tspan id="SvgjsTspan1352" dy="26" x="142"><tspan id="SvgjsTspan1353" style="text-decoration:;">砸两层</tspan></tspan><tspan id="SvgjsTspan1354" dy="26" x="142"><tspan id="SvgjsTspan1355" style="text-decoration:;">下边比上边多两隔</tspan></tspan></text></g></g><g id="SvgjsG1356" transform="translate(505.0034484863281,326.017333984375)"><path id="SvgjsPath1357" d="M 40 0L 80 70L 0 70Z" stroke="rgba(50,50,50,1)" stroke-width="2" fill-opacity="1" fill="#ffffff"></path><g id="SvgjsG1358"><text id="SvgjsText1359" font-family="微软雅黑" text-anchor="middle" font-size="13px" width="60px" fill="#323232" font-weight="400" align="middle" anchor="middle" family="微软雅黑" size="13px" weight="400" font-style="" opacity="1" y="33.8" transform="rotate(0)"></text></g></g><g id="SvgjsG1360" transform="translate(425.0034484863281,326.017333984375)"><path id="SvgjsPath1361" d="M 40 0L 80 70L 0 70Z" stroke="rgba(50,50,50,1)" stroke-width="2" fill-opacity="1" fill="#ffffff"></path><g id="SvgjsG1362"><text id="SvgjsText1363" font-family="微软雅黑" text-anchor="middle" font-size="13px" width="60px" fill="#323232" font-weight="400" align="middle" anchor="middle" family="微软雅黑" size="13px" weight="400" font-style="" opacity="1" y="33.8" transform="rotate(0)"></text></g></g><g id="SvgjsG1364" transform="translate(345.0034484863281,326.017333984375)"><path id="SvgjsPath1365" d="M 40 0L 80 70L 0 70Z" stroke="rgba(50,50,50,1)" stroke-width="2" fill-opacity="1" fill="#ffffff"></path><g id="SvgjsG1366"><text id="SvgjsText1367" font-family="微软雅黑" text-anchor="middle" font-size="13px" width="60px" fill="#323232" font-weight="400" align="middle" anchor="middle" family="微软雅黑" size="13px" weight="400" font-style="" opacity="1" y="33.8" transform="rotate(0)"></text></g></g><g id="SvgjsG1368" transform="translate(265.0034484863281,326.017333984375)"><path id="SvgjsPath1369" d="M 40 0L 80 70L 0 70Z" stroke="rgba(50,50,50,1)" stroke-width="2" fill-opacity="1" fill="#ffffff"></path><g id="SvgjsG1370"><text id="SvgjsText1371" font-family="微软雅黑" text-anchor="middle" font-size="13px" width="60px" fill="#323232" font-weight="400" align="middle" anchor="middle" family="微软雅黑" size="13px" weight="400" font-style="" opacity="1" y="33.8" transform="rotate(0)"></text></g></g><g id="SvgjsG1372" transform="translate(185.00344848632812,326.017333984375)"><path id="SvgjsPath1373" d="M 40 0L 80 70L 0 70Z" stroke="rgba(50,50,50,1)" stroke-width="2" fill-opacity="1" fill="#ffffff"></path><g id="SvgjsG1374"><text id="SvgjsText1375" font-family="微软雅黑" text-anchor="middle" font-size="13px" width="60px" fill="#323232" font-weight="400" align="middle" anchor="middle" family="微软雅黑" size="13px" weight="400" font-style="" opacity="1" y="33.8" transform="rotate(0)"></text></g></g><g id="SvgjsG1376" transform="translate(105.00344848632812,326.017333984375)"><path id="SvgjsPath1377" d="M 40 0L 80 70L 0 70Z" stroke="rgba(50,50,50,1)" stroke-width="2" fill-opacity="1" fill="#ffffff"></path><g id="SvgjsG1378"><text id="SvgjsText1379" font-family="微软雅黑" text-anchor="middle" font-size="13px" width="60px" fill="#323232" font-weight="400" align="middle" anchor="middle" family="微软雅黑" size="13px" weight="400" font-style="" opacity="1" y="33.8" transform="rotate(0)"></text></g></g><g id="SvgjsG1380" transform="translate(25.003448486328125,326.017333984375)"><path id="SvgjsPath1381" d="M 40 0L 80 70L 0 70Z" stroke="rgba(50,50,50,1)" stroke-width="2" fill-opacity="1" fill="#ffffff"></path><g id="SvgjsG1382"><text id="SvgjsText1383" font-family="微软雅黑" text-anchor="middle" font-size="13px" width="60px" fill="#323232" font-weight="400" align="middle" anchor="middle" family="微软雅黑" size="13px" weight="400" font-style="" opacity="1" y="33.8" transform="rotate(0)"></text></g></g><g id="SvgjsG1384" transform="translate(29.003448486328125,362.017333984375)"><path id="SvgjsPath1385" d="M 0 0L 61 0L 61 40L 0 40Z" stroke="none" fill="none"></path><g id="SvgjsG1386"><text id="SvgjsText1387" font-family="微软雅黑" text-anchor="middle" font-size="22px" width="61px" fill="#ff0000" font-weight="700" align="middle" anchor="middle" family="微软雅黑" size="22px" weight="700" font-style="" opacity="1" y="0.7000000000000002" transform="rotate(0)"><tspan id="SvgjsTspan1388" dy="27" x="30.5"><tspan id="SvgjsTspan1389" style="text-decoration:;">60°</tspan></tspan></text></g></g><g id="SvgjsG1390" transform="translate(585.0034484863281,326.017333984375)"><path id="SvgjsPath1391" d="M 40 0L 80 70L 0 70Z" stroke="rgba(50,50,50,1)" stroke-width="2" fill-opacity="1" fill="#ffffff"></path><g id="SvgjsG1392"><text id="SvgjsText1393" font-family="微软雅黑" text-anchor="middle" font-size="13px" width="60px" fill="#323232" font-weight="400" align="middle" anchor="middle" family="微软雅黑" size="13px" weight="400" font-style="" opacity="1" y="33.8" transform="rotate(0)"></text></g></g><g id="SvgjsG1394" transform="translate(658.0034484863281,297.517333984375)"><path id="SvgjsPath1395" d="M 0 0L 268 0L 284 16L 284 69.5L 0 69.5L 0 0Z" stroke="none" fill-opacity="1" fill="#ffffaa"></path><path id="SvgjsPath1396" d="M 268 0L 268 16L 284 16Z" stroke="none" fill-opacity="1" fill="#cdcdcd"></path><path id="SvgjsPath1397" d="M 0 0L 268 0L 284 16L 284 69.5L 0 69.5L 0 0Z" stroke="none" fill="none"></path><g id="SvgjsG1398"><text id="SvgjsText1399" font-family="微软雅黑" text-anchor="middle" font-size="21px" width="264px" fill="#ff3333" font-weight="700" align="middle" anchor="middle" family="微软雅黑" size="21px" weight="700" font-style="" opacity="1" y="4.1" transform="rotate(0)"><tspan id="SvgjsTspan1400" dy="26" x="142"><tspan id="SvgjsTspan1401" style="text-decoration:;">砸三层</tspan></tspan><tspan id="SvgjsTspan1402" dy="26" x="142"><tspan id="SvgjsTspan1403" style="text-decoration:;">下边比上边多三隔</tspan></tspan></text></g></g></svg>